<?xml version="1.0" encoding="UTF-8" standalone="no"?>
<!-- Created with Inkscape (http://www.inkscape.org/) -->

<svg
   xmlns:dc="http://purl.org/dc/elements/1.1/"
   xmlns:cc="http://creativecommons.org/ns#"
   xmlns:rdf="http://www.w3.org/1999/02/22-rdf-syntax-ns#"
   xmlns:svg="http://www.w3.org/2000/svg"
   xmlns="http://www.w3.org/2000/svg"
   version="1.1"
   width="115.24905"
   height="100"
   id="svg3004"
   xml:space="preserve"><defs
     id="defs3008"><clipPath
       id="clipPath3898"><path
         d="m 374.173,39.685 178.582,0 0,155.906 -178.582,0 0,-155.906 z"
         id="path3900" /></clipPath></defs><g
     transform="matrix(0.67834379,0,0,-0.67834379,28.848936,50.000068)"
     id="g3854"><path
       d="M 0,0 84.84,0 42.421,-73.601 0,0 z"
       id="path3856"
       style="fill:#ffffff;fill-opacity:1;fill-rule:nonzero;stroke:none" /></g><g
     transform="matrix(0.6767601,0,0,0.67792973,-684.51591,152.94346)"
     id="g3858"><g
       transform="translate(1054.0883,-151.8497)"
       id="g3860"><path
         d="M 0,0 42.52,73.646 85.039,0 0,0 z"
         id="path3862"
         style="fill:none;stroke:#000000;stroke-width:0.21600001;stroke-linecap:butt;stroke-linejoin:miter;stroke-miterlimit:2.61299992;stroke-opacity:1;stroke-dasharray:none" /></g></g><g
     transform="matrix(0.67834379,0,0,-0.67834379,28.848936,50.000068)"
     id="g3864"><path
       d="M 0,0 42.421,73.601 84.84,0 0,0 z"
       id="path3866"
       style="fill:#000000;fill-opacity:1;fill-rule:nonzero;stroke:none" /></g><g
     transform="matrix(0.6767601,0,0,0.67792973,-684.51591,152.94346)"
     id="g3868"><g
       transform="translate(1096.6079,-225.4958)"
       id="g3870"><path
         d="m 0,0 42.52,73.646 -85.04,0 L 0,0 z"
         id="path3872"
         style="fill:none;stroke:#000000;stroke-width:0.21600001;stroke-linecap:butt;stroke-linejoin:miter;stroke-miterlimit:2.61299992;stroke-opacity:1;stroke-dasharray:none" /></g></g><g
     transform="matrix(0.67834379,0,0,-0.67834379,57.624619,99.926985)"
     id="g3874"><path
       d="M 0,0 42.421,73.601 84.84,0 0,0 z"
       id="path3876"
       style="fill:#000000;fill-opacity:1;fill-rule:nonzero;stroke:none" /></g><g
     transform="matrix(0.6767601,0,0,0.67792973,-684.51591,152.94346)"
     id="g3878"><g
       transform="translate(1139.1274,-151.8497)"
       id="g3880"><path
         d="m 0,0 42.52,73.646 -85.04,0 L 0,0 z"
         id="path3882"
         style="fill:none;stroke:#000000;stroke-width:0.21600001;stroke-linecap:butt;stroke-linejoin:miter;stroke-miterlimit:2.61299992;stroke-opacity:1;stroke-dasharray:none" /></g></g><g
     transform="matrix(0.67834379,0,0,-0.67834379,0.073457,99.926985)"
     id="g3884"><path
       d="M 0,0 42.421,73.601 84.84,0 0,0 z"
       id="path3886"
       style="fill:#000000;fill-opacity:1;fill-rule:nonzero;stroke:none" /></g><g
     transform="matrix(0.6767601,0,0,0.67792973,-684.51591,152.94346)"
     id="g3888"><g
       transform="translate(1054.0883,-151.8497)"
       id="g3890"><path
         d="m 0,0 42.52,73.646 -85.04,0 L 0,0 z"
         id="path3892"
         style="fill:none;stroke:#000000;stroke-width:0.21600001;stroke-linecap:butt;stroke-linejoin:miter;stroke-miterlimit:2.61299992;stroke-opacity:1;stroke-dasharray:none" /></g></g><g
     transform="matrix(0.67834379,0,0,-0.67834379,-256.85475,129.08396)"
     id="g3894"><g
       clip-path="url(#clipPath3898)"
       id="g3896"><g
         transform="translate(463.5989,152.9885)"
         id="g3902"><path
           d="m 0,0 c 4.653,0 8.695,-2.71 10.631,-6.636 l 6.848,3.96 C 14.165,3.612 7.568,7.914 0,7.914 c -10.879,0 -19.751,-8.887 -19.751,-19.785 0,-10.897 8.872,-19.785 19.751,-19.785 7.287,0 13.673,3.989 17.096,9.897 l -6.838,3.956 C 8.204,-21.349 4.373,-23.743 0,-23.743 c -6.527,0 -11.851,5.333 -11.851,11.872 C -11.851,-5.333 -6.527,0 0,0"
           id="path3904"
           style="fill:#ed2129;fill-opacity:1;fill-rule:evenodd;stroke:none" /></g><g
         transform="translate(506.0192,79.3874)"
         id="g3906"><path
           d="m 0,0 c 4.653,0 8.695,-2.71 10.631,-6.636 l 6.848,3.96 C 14.165,3.612 7.568,7.914 0,7.914 c -10.879,0 -19.751,-8.887 -19.751,-19.785 0,-10.897 8.872,-19.785 19.751,-19.785 7.287,0 13.673,3.989 17.096,9.897 l -6.838,3.956 C 8.204,-21.349 4.372,-23.743 0,-23.743 c -6.527,0 -11.85,5.333 -11.85,11.872 C -11.85,-5.333 -6.527,0 0,0"
           id="path3908"
           style="fill:#ed2129;fill-opacity:1;fill-rule:evenodd;stroke:none" /></g><g
         transform="translate(421.1785,79.3874)"
         id="g3910"><path
           d="m 0,0 c 4.653,0 8.695,-2.71 10.631,-6.636 l 6.848,3.96 C 14.165,3.612 7.568,7.914 0,7.914 c -10.879,0 -19.751,-8.887 -19.751,-19.785 0,-10.897 8.872,-19.785 19.751,-19.785 7.287,0 13.674,3.989 17.096,9.897 l -6.838,3.956 C 8.204,-21.349 4.372,-23.743 0,-23.743 c -6.527,0 -11.85,5.333 -11.85,11.872 C -11.85,-5.333 -6.527,0 0,0"
           id="path3912"
           style="fill:#ed2129;fill-opacity:1;fill-rule:evenodd;stroke:none" /></g><g
         transform="translate(482.5548,92.4454)"
         id="g3914"><path
           d="M 0,0 C -0.21,10.149 -8.43,18.384 -18.562,18.594 L -18.562,0 0,0 z m -37.912,-0.792 c 0.208,-10.147 8.43,-18.383 18.561,-18.592 l 0,18.592 -18.561,0 z"
           id="path3916"
           style="fill:#ed2129;fill-opacity:1;fill-rule:evenodd;stroke:none" /></g><g
         transform="translate(463.5989,72.2648)"
         id="g3918"><path
           d="m 0,0 c 10.879,0 19.751,8.888 19.751,19.785 0,10.898 -8.872,19.786 -19.751,19.786 -10.879,0 -19.751,-8.888 -19.751,-19.786 C -19.751,8.888 -10.879,0 0,0 m 0.395,0.797 c 10.131,0.208 18.352,8.444 18.561,18.592 l -18.561,0 0,-18.592 z M 18.956,20.181 C 18.747,30.328 10.525,38.564 0.395,38.774 l 0,-18.593 18.561,0 z M -0.395,38.774 c -10.13,-0.21 -18.352,-8.446 -18.561,-18.593 l 18.561,0 0,18.593 z M -18.956,19.389 C -18.747,9.241 -10.526,1.005 -0.395,0.797 l 0,18.592 -18.561,0 z"
           id="path3920"
           style="fill:#000000;fill-opacity:1;fill-rule:evenodd;stroke:none" /></g><g
         transform="matrix(0.9976654,0,0,-0.9993896,-630.44897,-35.173157)"
         id="g3922"><g
           transform="translate(1096.6079,-107.5036)"
           id="g3924"><path
             d="m 0,0 c 10.904,0 19.797,-8.893 19.797,-19.797 0,-10.905 -8.893,-19.798 -19.797,-19.798 -10.904,0 -19.797,8.893 -19.797,19.798 C -19.797,-8.893 -10.904,0 0,0 z M 0.396,-0.797 C 10.551,-1.006 18.791,-9.247 19,-19.401 l -18.604,0 0,18.604 z M 19,-20.193 C 18.791,-30.347 10.55,-38.588 0.396,-38.798 l 0,18.605 18.604,0 z M -0.396,-38.798 c -10.154,0.21 -18.395,8.451 -18.604,18.605 l 18.604,0 0,-18.605 z M -19,-19.401 c 0.209,10.154 8.449,18.395 18.604,18.604 l 0,-18.604 -18.604,0 z"
             id="path3926"
             style="fill:none;stroke:#000000;stroke-width:0.21600001;stroke-linecap:butt;stroke-linejoin:miter;stroke-miterlimit:2.61299992;stroke-opacity:1;stroke-dasharray:none" /></g></g></g></g><metadata
     id="metadata3148"><rdf:RDF><cc:Work
         rdf:about=""><dc:title></dc:title></cc:Work></rdf:RDF></metadata></svg>